<?xml version="1.0" encoding="iso-8859-1"?>
<!-- Generator: Adobe Illustrator 19.0.0, SVG Export Plug-In . SVG Version: 6.00 Build 0)  -->
<svg xmlns="http://www.w3.org/2000/svg" xmlns:xlink="http://www.w3.org/1999/xlink" version="1.1" id="Layer_1" x="0px" y="0px" viewBox="0 0 349.775 349.775" style="enable-background:new 0 0 349.775 349.775;" xml:space="preserve" width="512" height="512">
<g>
	<polygon style="fill:#9AD14B;" points="260.891,95.497 201.691,71.407 174.891,110.187 148.091,71.407 88.891,95.497    120.451,46.807 123.891,41.497 110.891,7.497 174.891,36.497 238.891,7.497 225.891,41.497 229.491,47.057  "/>
	<path style="fill:#F95428;" d="M277.161,61.317c34.74,29.18,56.82,72.95,56.82,121.87c0,87.86-71.23,159.09-159.09,159.09   c-87.87,0-159.1-71.23-159.1-159.09c0-49.43,22.54-93.59,57.9-122.77c13.82-11.4,29.6-13.93,46.76-13.61l-31.56,48.69l59.2-24.09   l26.8,38.78l26.8-38.78l59.2,24.09l-31.4-48.44C247.031,46.837,263.121,49.527,277.161,61.317z"/>
	<g>
		<path style="fill:#E54728;" d="M97.791,183.187c0-42.105,16.363-80.38,43.066-108.836L88.891,95.497l31.56-48.69    c-17.16-0.32-32.94,2.21-46.76,13.61c-35.36,29.18-57.9,73.34-57.9,122.77c0,87.86,71.23,159.09,159.1,159.09    c14.177,0,27.917-1.865,40.998-5.344C147.893,318.847,97.791,256.87,97.791,183.187z"/>
	</g>
	<path style="fill:#FFFFFF;" d="M246.661,306.278c-2.504,0-4.95-1.253-6.372-3.535c-2.19-3.516-1.116-8.141,2.399-10.332   c38.065-23.719,60.792-64.551,60.792-109.226c0-21.094-5.23-42.036-15.126-60.562c-1.952-3.654-0.572-8.198,3.082-10.149   c3.656-1.953,8.198-0.57,10.148,3.082c11.053,20.693,16.896,44.079,16.896,67.629c0,24.803-6.456,49.27-18.672,70.755   c-11.837,20.821-28.846,38.525-49.188,51.201C249.387,305.912,248.016,306.278,246.661,306.278z"/>
	<polygon style="fill:#90BC42;" points="180.891,60.157 174.891,110.187 148.091,71.407 88.891,95.497 120.451,46.807    123.891,41.497 110.891,7.497 174.891,36.497 157.891,51.157  "/>
	<circle style="fill:#FFFFFF;" cx="282.86" cy="100.727" r="7.5"/>
	<path style="fill:#333333;" d="M281.986,55.571c-15.422-12.951-32.86-15.684-47.334-15.995l11.241-29.397   c1.085-2.84,0.349-6.055-1.865-8.139c-2.213-2.085-5.466-2.626-8.236-1.371L174.89,28.267L113.989,0.669   c-2.771-1.254-6.023-0.713-8.236,1.371c-2.214,2.084-2.95,5.299-1.865,8.139L115.022,39.3c-14.122,0.258-31.029,2.896-46.103,15.33   C30.39,86.425,8.292,133.282,8.292,183.185c0,91.858,74.736,166.59,166.601,166.59c91.858,0,166.59-74.732,166.59-166.59   C341.483,133.845,319.797,87.332,281.986,55.571z M171.794,43.332c1.967,0.891,4.225,0.891,6.191,0l47.381-21.471l-6.485,16.96   c-0.854,2.237-0.591,4.748,0.712,6.758l22.025,33.981L204.515,64.46c-3.257-1.326-6.998-0.209-8.997,2.683l-20.628,29.85   l-20.628-29.85c-1.435-2.076-3.767-3.237-6.173-3.237c-0.946,0-1.904,0.18-2.824,0.554l-37.104,15.101l22.025-33.981   c1.303-2.01,1.566-4.521,0.712-6.758l-6.485-16.96L171.794,43.332z M174.893,334.775c-83.593,0-151.601-68.003-151.601-151.59   c0-45.41,20.11-88.05,55.173-116.984c7.661-6.319,16.377-9.915,27.789-11.276L82.599,91.421c-1.781,2.749-1.573,6.335,0.515,8.86   c2.089,2.524,5.573,3.399,8.606,2.166l53.624-21.825l23.376,33.826c1.4,2.027,3.707,3.236,6.17,3.236s4.77-1.209,6.17-3.236   l23.376-33.826l53.624,21.825c3.03,1.235,6.518,0.357,8.606-2.166c2.088-2.524,2.296-6.111,0.515-8.86l-23.443-36.168   c11.8,1.452,20.748,5.21,28.6,11.805c34.41,28.902,54.145,71.229,54.145,116.127C326.483,266.772,258.48,334.775,174.893,334.775z"/>
</g>

</svg>
