<svg height="490pt" viewBox="0 0 490 490" width="490pt" xmlns="http://www.w3.org/2000/svg"><path d="m432 482h-374c-27.613281 0-50-22.386719-50-50v-374c0-27.613281 22.386719-50 50-50h374c27.613281 0 50 22.386719 50 50v374c0 27.613281-22.386719 50-50 50zm0 0" fill="#44c7b6"/><path d="m196.792969 189.613281c0 17.609375-14.273438 31.878907-31.882813 31.878907-17.605468 0-31.878906-14.269532-31.878906-31.878907 0-17.605469 14.273438-31.878906 31.878906-31.878906 17.609375 0 31.882813 14.273437 31.882813 31.878906zm0 0" fill="#f973a3"/><path d="m304.371094 335.65625c0 17.605469-14.273438 31.878906-31.878906 31.878906-17.605469 0-31.878907-14.273437-31.878907-31.878906s14.273438-31.878906 31.878907-31.878906c17.605468 0 31.878906 14.273437 31.878906 31.878906zm0 0" fill="#f973a3"/><path d="m88 482h-30c-27.621094 0-50-22.378906-50-50v-374c0-27.621094 22.378906-50 50-50h30c-27.621094 0-50 22.378906-50 50v374c0 27.621094 22.378906 50 50 50zm0 0" fill="#4bdbc3"/><path d="m482 58v374c0 27.621094-22.378906 50-50 50h-30c27.621094 0 50-22.378906 50-50v-374c0-27.621094-22.378906-50-50-50h30c27.621094 0 50 22.378906 50 50zm0 0" fill="#3bb2a0"/><path d="m196.800781 189.621094c0 12.179687-6.839843 22.757812-16.878906 28.117187-4.460937 2.402344-9.582031 3.761719-15 3.761719-17.621094 0-31.882813-14.28125-31.882813-31.878906 0-17.621094 14.261719-31.882813 31.882813-31.882813 5.417969 0 10.539063 1.363281 15 3.742188 10.039063 5.378906 16.878906 15.960937 16.878906 28.140625zm0 0" fill="#f973a3"/><path d="m304.378906 335.660156c0 12.179688-6.839844 22.761719-16.878906 28.121094-4.480469 2.398438-9.578125 3.757812-15 3.757812-17.621094 0-31.878906-14.277343-31.878906-31.878906 0-17.621094 14.257812-31.878906 31.878906-31.878906 5.421875 0 10.519531 1.359375 15 3.738281 10.039062 5.359375 16.878906 15.941407 16.878906 28.140625zm0 0" fill="#f973a3"/><path d="m196.800781 189.621094c0 12.179687-6.839843 22.757812-16.878906 28.117187-10.0625-5.359375-16.882813-15.9375-16.882813-28.117187 0-12.199219 6.820313-22.78125 16.882813-28.140625 10.039063 5.378906 16.878906 15.960937 16.878906 28.140625zm0 0" fill="#ff4a73"/><path d="m304.378906 335.660156c0 12.179688-6.839844 22.761719-16.878906 28.121094-10.058594-5.359375-16.878906-15.941406-16.878906-28.121094 0-12.199218 6.820312-22.78125 16.878906-28.140625 10.039062 5.359375 16.878906 15.941407 16.878906 28.140625zm0 0" fill="#ff4a73"/><g fill="#5f266d"><path d="m432 0h-374c-31.980469 0-58 26.019531-58 58v374c0 31.980469 26.019531 58 58 58h374c31.980469 0 58-26.019531 58-58v-374c0-31.980469-26.019531-58-58-58zm42 432c0 23.160156-18.839844 42-42 42h-374c-23.160156 0-42-18.839844-42-42v-374c0-23.160156 18.839844-42 42-42h374c23.160156 0 42 18.839844 42 42zm0 0"/><path d="m435.710938 114.792969-82.71875 24.371093c-10.042969 2.960938-5.742188 18.382813 4.523437 15.351563l58.867187-17.34375-127.234374 162.273437c-9.335938-4.667968-22.90625-5.265624-34.347657.496094l-60.601562-83.28125c23.480469-25.402344 5.453125-66.917968-29.277344-66.917968-31.457031 0-50.429687 34.847656-33.6875 61.171874l-84.878906 82.183594c-5.175781 5.007813-1.570313 13.746094 5.566406 13.746094 4.515625 0-2.117187 5.183594 90.394531-84.390625 11.734375 8.085937 26.472656 9.152344 38.921875 3.550781l60.960938 83.78125c-22.046875 25.65625-3.730469 65.757813 30.300781 65.757813 36.234375 0 52.0625-44.117188 29.554688-66.621094l126.441406-161.269531-3.480469 60.027344c-.613281 10.558593 15.351563 11.613281 15.96875.929687l4.914063-84.613281c1.160156-5.964844-4.382813-10.929688-10.1875-9.203125zm-257.070313 94.347656c-15.738281 11.113281-37.601563-.207031-37.601563-19.519531 0-13.179688 10.699219-23.882813 23.882813-23.882813 22.960937 0 32.894531 29.4375 13.71875 43.402344zm93.859375 150.398437c-13.179688 0-23.878906-10.71875-23.878906-23.878906 0-19.667968 22.488281-30.816406 38.160156-19.140625 0 .019531 0 .019531.019531 0 18.351563 13.859375 8.507813 43.019531-14.300781 43.019531zm0 0"/><path d="m433 377.921875c-4.421875 0-8 3.578125-8 8v29.078125c0 6.621094-5.378906 12-12 12h-49.480469c-4.417969 0-8 3.578125-8 8s3.582031 8 8 8h49.480469c15.441406 0 28-12.558594 28-28v-29.078125c0-4.421875-3.578125-8-8-8zm0 0"/><path d="m433 327.660156c-4.421875 0-8 3.578125-8 8v20.261719c0 4.417969 3.578125 8 8 8s8-3.582031 8-8v-20.261719c0-4.421875-3.578125-8-8-8zm0 0"/></g></svg>